<?xml version="1.0" encoding="utf-8"?>
<!-- Generator: Adobe Illustrator 26.0.1, SVG Export Plug-In . SVG Version: 6.00 Build 0)  -->
<svg version="1.1" id="Layer_1" xmlns="http://www.w3.org/2000/svg" xmlns:xlink="http://www.w3.org/1999/xlink" x="0px" y="0px"
	 viewBox="0 0 365 90" style="enable-background:new 0 0 365 90;" xml:space="preserve">
<style type="text/css">
	.st0{fill:#4B49AC;}
</style>
<g>
	<g>
		<path class="st0" d="M84.5,11.8v38.9c0,6.9-2,12.3-6.1,16.4s-9.5,6.2-16.3,6.2c-6.8,0-11.9-2-15.5-6c-3.6-4-5.4-9.7-5.4-17.2V11.8
			H59V50c0,3.7,1.3,5.5,3.9,5.5c2.5,0,3.8-1.8,3.8-5.5V11.8H84.5z"/>
		<path class="st0" d="M133.2,71.8h-16.4V47c0-2.5-1-3.8-3.1-3.8c-2.1,0-3.1,1.3-3.1,3.8v24.7H94.1V47.3c0-5.7,1.9-10.5,5.7-14.4
			s8.4-5.9,13.9-5.9c6.3,0,11.3,2.3,15.1,6.8c3,3.5,4.4,8.5,4.4,14.8V71.8z"/>
		<path class="st0" d="M159.2,27.9v43.8h-16.4V27.9H159.2z M151,8.4c2.2,0,4.2,0.8,5.8,2.4c1.6,1.6,2.4,3.4,2.4,5.6
			c0,2.3-0.8,4.2-2.3,5.6c-1.5,1.5-3.5,2.2-5.9,2.2c-2.4,0-4.4-0.7-5.9-2.2c-1.5-1.5-2.3-3.3-2.3-5.6c0-2.1,0.8-4,2.4-5.6
			C146.9,9.2,148.8,8.4,151,8.4z"/>
		<path class="st0" d="M209.7,11.8v40.4c0,6.1-1.7,11.1-5.2,15.1c-3.5,4-7.8,6-13.1,6c-1.6,0-3.4-0.3-5.4-1V55
			c0.9,0.4,1.7,0.6,2.4,0.6c2.3,0,3.5-1.9,3.5-5.7V11.8H209.7z"/>
		<path class="st0" d="M239.5,27c6.2,0,11.5,2.2,16,6.7c4.4,4.5,6.7,9.8,6.7,16.1c0,6.3-2.2,11.7-6.7,16.2s-9.9,6.7-16.3,6.7
			c-6.4,0-11.8-2.2-16.3-6.7c-4.5-4.5-6.8-9.9-6.8-16.1c0-6.4,2.3-11.8,6.8-16.2C227.3,29.2,232.9,27,239.5,27z M239.1,43.2
			c-1.8,0-3.3,0.6-4.5,1.9s-1.8,2.8-1.8,4.7c0,1.8,0.6,3.4,1.9,4.7s2.7,1.9,4.5,1.9c1.8,0,3.3-0.6,4.5-1.9s1.9-2.8,1.9-4.7
			c0-1.8-0.6-3.4-1.8-4.7S240.9,43.2,239.1,43.2z"/>
		<path class="st0" d="M284.5,11.8v35.9c0,5.8,2.1,8.7,6.3,8.7c1.8,0,3.3-0.6,4.5-1.8c1.2-1.2,1.9-2.7,1.9-4.4
			c0-1.8-0.6-3.3-1.8-4.5c-1.2-1.2-2.6-1.8-4.3-1.8c-1.2,0-2.6,0.5-4.1,1.6V27.3c1.9-0.2,3.4-0.3,4.4-0.3c6.2,0,11.5,2.2,15.9,6.7
			c4.4,4.5,6.6,9.8,6.6,16.1c0,6.4-2.2,11.8-6.7,16.2s-10,6.6-16.5,6.6c-3.3,0-6.5-0.7-9.6-2.2c-3.1-1.4-5.7-3.4-7.7-5.8
			c-3.5-4.2-5.3-9.7-5.3-16.4V11.8H284.5z"/>
	</g>
</g>
</svg>
